# Blender 4.1.0
# www.blender.org
mtllib chess_horse.mtl
o Horse_chess
v 0.017369 2.589040 -0.167833
v 0.107398 2.592401 -0.230438
v 0.070358 2.676936 -0.115732
v 0.159723 2.776647 -0.078102
v -0.088957 2.559102 -0.120778
v -0.017378 2.760190 0.034862
v -0.285313 2.525802 -0.011119
v -0.000004 2.674615 -0.066485
v 0.212048 2.960892 0.074235
v 0.123347 2.764832 -0.063632
v 0.064206 2.772328 -0.012459
v 0.005065 2.779824 0.038714
v 0.363164 2.558680 -0.281543
v 0.415489 2.742925 -0.129206
v 0.618929 2.524958 -0.332647
v 0.516720 2.592401 0.178885
v 0.364385 2.776647 0.126560
v 0.567825 2.558680 -0.076881
v -0.310037 2.141456 0.110677
v -0.166099 2.316341 -0.014268
v -0.429249 2.350917 0.113826
v -0.573188 2.176032 0.238771
v -0.046886 2.106880 -0.017417
v -0.565131 1.807476 0.541064
v -0.474050 2.435555 0.449984
v -0.465995 2.066999 0.752277
v -0.557075 1.438919 0.843357
v -0.374915 2.695079 0.661197
v -0.475724 1.807476 0.050032
v -0.619071 1.807476 0.271766
v -0.664954 1.438919 0.304761
v -0.378262 1.438919 -0.138706
v -0.212575 1.772900 -0.078062
v 0.169122 1.661573 0.000299
v -0.050568 1.438919 -0.064775
v 0.277126 1.438919 0.009157
v 0.061118 1.884227 -0.008559
v 0.257307 1.657118 0.028976
v 0.237487 1.875317 0.048796
v 0.095301 1.991098 0.015690
v -0.253395 1.198836 -0.318305
v -0.128526 0.958753 -0.497903
v 0.074300 1.198836 -0.244373
v 0.199208 0.958753 -0.369281
v 0.526942 0.958753 -0.240659
v 0.230059 0.482117 -0.400133
v 0.557793 0.482117 -0.271511
v 0.588644 0.000000 -0.302362
v -0.048697 0.482117 -0.515598
v 0.031133 0.000000 -0.533291
v -0.173565 0.722201 -0.335999
v -0.316910 0.722201 -0.114266
v -0.695739 0.961107 0.288224
v -0.526379 0.000000 -0.302362
v -0.595667 0.722201 0.001200
v -0.726523 0.483294 0.271687
v -0.757309 0.000000 0.255149
v -0.541727 0.722201 0.828010
v -0.623818 0.961107 0.647288
v -0.526379 -0.000000 0.812661
v -0.690564 0.483294 0.451219
v -0.330114 2.610440 0.325039
v 0.788951 2.046408 -0.641763
v 0.561767 2.228405 -0.504654
v 0.633832 1.983693 -0.543653
v 0.334583 2.410403 -0.367546
v 0.293056 2.256690 -0.337990
v 0.478713 1.920979 -0.445543
v 0.703940 2.285683 -0.487204
v 0.096701 2.223390 -0.228331
v 0.175606 2.141456 0.596319
v 0.047512 2.176032 0.859470
v 0.172457 2.350917 0.715533
v 0.300551 2.316341 0.452382
v 0.303700 2.106880 0.333170
v 0.297402 2.525802 0.571595
v -0.254782 1.807476 0.851414
v -0.163702 2.435555 0.760334
v 0.236251 1.807476 0.762008
v -0.018477 1.438919 0.951236
v 0.014517 1.807476 0.905353
v 0.424989 1.438919 0.664544
v 0.364345 1.772900 0.498857
v 0.285984 1.661573 0.117161
v 0.351058 1.438919 0.336850
v 0.294842 1.884227 0.225165
v 0.270594 1.991098 0.190983
v 0.604587 1.198836 0.539676
v 0.530655 1.198836 0.211982
v 0.784185 0.958753 0.414808
v 0.655563 0.958753 0.087074
v 0.686415 0.482117 0.056223
v 0.801879 0.482117 0.334979
v 0.819572 0.000000 0.255149
v 0.622282 0.722201 0.459847
v 0.400548 0.722201 0.603193
v -0.001941 0.961107 0.982021
v 0.285084 0.722201 0.881949
v 0.588644 -0.000000 0.812661
v 0.014596 0.483294 1.012805
v 0.031133 -0.000000 1.043591
v -0.361006 0.961107 0.910102
v -0.164937 0.483294 0.976846
v -0.038756 2.610440 0.616396
v 0.928044 2.046408 -0.502669
v 0.829935 1.983693 -0.347550
v 0.790936 2.228405 -0.275484
v 0.653828 2.410403 -0.048299
v 0.624274 2.256690 -0.006773
v 0.731825 1.920979 -0.192431
v 0.773487 2.285683 -0.417658
v 0.514613 2.223390 0.189582
v 0.407061 2.559102 0.375240
v 0.517763 2.013930 0.070370
v 0.215914 2.013930 -0.231480
v 0.605270 1.920979 -0.318988
v 0.128407 2.106880 0.157876
v 0.352769 2.674615 0.286288
v 0.456439 2.731690 0.269163
v 0.454115 2.589040 0.268914
v 0.335571 2.893203 0.290149
v 0.461085 3.016990 0.269661
v 0.458761 2.874340 0.269412
v 0.251421 2.760190 0.303661
v 0.210057 2.769415 0.310637
v 0.402016 2.676936 0.215925
v 0.405499 2.890911 0.216299
v 0.349915 2.764832 0.162936
v 0.075977 2.840053 0.283146
v 0.160016 2.818893 0.271945
v 0.170686 2.764507 0.334115
v 0.086646 2.785666 0.345316
v 0.247569 2.779824 0.281218
v -0.081433 2.827986 0.367716
v -0.003866 2.893203 -0.049288
v 0.006378 2.955096 -0.112045
v 0.069985 2.890911 -0.119217
v 0.016622 3.016990 -0.174802
v -0.014110 2.831309 0.013469
v -0.024354 2.769415 0.076226
v 0.003138 2.840053 0.210306
v -0.059032 2.785666 0.199637
v -0.047832 2.764507 0.115598
v 0.014338 2.818893 0.126267
v 0.017120 2.731690 -0.170156
v 0.016871 2.874340 -0.172479
vn -0.4717 0.5783 -0.6657
vn 0.1716 0.4237 -0.8894
vn -0.3638 0.4111 -0.8358
vn -0.2661 0.6580 -0.7044
vn -0.5015 0.3456 -0.7931
vn -0.8874 0.3452 -0.3054
vn -0.6904 0.3292 -0.6442
vn -0.8188 0.3617 -0.4458
vn 0.1119 0.9874 -0.1118
vn 0.0162 0.7464 -0.6653
vn 0.1203 0.9927 -0.0064
vn 0.0716 0.9756 0.2077
vn -0.0848 0.5824 -0.8085
vn 0.4270 0.7971 -0.4270
vn 0.4932 0.7166 -0.4932
vn 0.8358 0.4112 0.3638
vn 0.7044 0.6580 0.2661
vn 0.8085 0.5824 0.0848
vn -0.4316 0.0518 -0.9006
vn -0.7489 0.1564 -0.6439
vn -0.5634 -0.3091 -0.7662
vn -0.9077 0.2314 -0.3501
vn -0.3352 -0.2583 -0.9060
vn -0.9640 0.1557 0.2155
vn -0.9338 0.3577 -0.0012
vn -0.6927 0.2009 0.6927
vn -0.7030 0.1077 0.7030
vn -0.5096 0.6933 0.5096
vn -0.6393 0.2098 -0.7398
vn -0.9790 0.0788 -0.1881
vn -0.9766 0.1048 -0.1876
vn -0.5015 0.1911 -0.8438
vn -0.0821 0.2173 -0.9726
vn 0.2664 0.0910 -0.9596
vn 0.2040 0.3751 -0.9043
vn 0.6377 0.4320 -0.6377
vn 0.2664 0.0911 -0.9596
vn 0.6858 0.2437 -0.6858
vn 0.7013 0.1274 -0.7013
vn 0.4746 0.3521 -0.8067
vn -0.4867 0.3467 -0.8018
vn 0.2363 0.6041 -0.7611
vn -0.3224 0.2081 -0.9235
vn 0.3446 0.3321 -0.8781
vn 0.6665 0.3340 -0.6665
vn 0.3725 0.0902 -0.9236
vn 0.7042 0.0906 -0.7042
vn 0.5693 -0.5931 -0.5693
vn -0.3483 -0.0231 -0.9371
vn -0.0493 -0.5762 -0.8158
vn -0.8637 -0.1111 -0.4915
vn -0.6415 0.1297 -0.7561
vn -0.9930 0.0673 -0.0970
vn -0.6977 0.2204 -0.6816
vn -0.5505 -0.5332 -0.6424
vn -0.9930 0.0671 -0.0972
vn -0.7870 -0.6165 -0.0236
vn -0.7068 -0.0301 0.7068
vn -0.9566 0.0143 0.2909
vn -0.5424 -0.6415 0.5424
vn -0.9567 0.0143 0.2907
vn -0.7267 0.6370 -0.2572
vn 0.2618 -0.2419 -0.9343
vn -0.1993 -0.6518 -0.7317
vn -0.3357 0.2625 -0.9047
vn -0.5088 -0.0056 -0.8608
vn -0.3493 -0.7693 -0.5349
vn 0.2552 0.5870 -0.7683
vn -0.5919 -0.1840 -0.7847
vn 0.9006 0.0518 0.4316
vn 0.6439 0.1564 0.7489
vn 0.3501 0.2314 0.9077
vn 0.7662 -0.3091 0.5634
vn 0.9060 -0.2583 0.3352
vn 0.6442 0.3292 0.6904
vn -0.2155 0.1557 0.9640
vn 0.0012 0.3577 0.9338
vn 0.7398 0.2098 0.6393
vn 0.1876 0.1048 0.9766
vn 0.1881 0.0788 0.9790
vn 0.8438 0.1911 0.5015
vn 0.9726 0.2173 0.0821
vn 0.9596 0.0910 -0.2664
vn 0.9043 0.3751 -0.2040
vn 0.8067 0.3521 -0.4746
vn 0.8018 0.3467 0.4867
vn 0.7611 0.6041 -0.2363
vn 0.9235 0.2081 0.3224
vn 0.8781 0.3321 -0.3446
vn 0.9236 0.0902 -0.3725
vn 0.9371 -0.0231 0.3483
vn 0.8158 -0.5762 0.0493
vn 0.4915 -0.1111 0.8637
vn 0.7561 0.1297 0.6415
vn 0.0970 0.0673 0.9930
vn 0.6424 -0.5332 0.5505
vn 0.6816 0.2204 0.6977
vn 0.0972 0.0670 0.9930
vn 0.0236 -0.6165 0.7870
vn -0.2909 0.0143 0.9566
vn -0.2907 0.0143 0.9567
vn 0.2572 0.6370 0.7267
vn 0.9343 -0.2419 -0.2618
vn 0.9047 0.2625 0.3357
vn 0.7317 -0.6518 0.1993
vn 0.8608 -0.0056 0.5088
vn 0.5349 -0.7693 0.3493
vn 0.7683 0.5870 -0.2552
vn 0.7847 -0.1840 0.5919
vn 0.7931 0.3456 0.5015
vn 0.2828 -0.8084 0.5162
vn -0.5162 -0.8084 -0.2827
vn 0.0240 -0.9994 -0.0240
vn 0.5730 -0.5859 -0.5730
vn 0.4458 0.3617 0.8188
vn 0.6657 0.5783 0.4717
vn 0.9529 -0.0160 0.3030
vn -0.5669 0.6570 0.4969
vn 0.3954 0.9145 0.0857
vn 0.3054 0.3452 0.8874
vn 0.2017 0.7389 0.6429
vn 0.8894 0.4237 -0.1716
vn 0.0662 0.3640 -0.9290
vn 0.6653 0.7464 -0.0162
vn 0.2691 0.7473 0.6075
vn 0.2691 0.7473 0.6076
vn -0.2077 0.9756 -0.0716
vn -0.2156 0.9524 0.2156
vn -0.4970 0.6570 0.5669
vn 0.9290 0.3640 -0.0662
vn -0.4969 0.6570 0.5669
vn -0.0857 0.9145 -0.3954
vn -0.6429 0.7389 -0.2017
vn -0.6076 0.7473 -0.2691
vn -0.6075 0.7473 -0.2691
vn -0.3030 -0.0160 -0.9529
s 1
f 1//1 3//2 2//3
f 4//4 2//3 3//2
f 5//5 1//1 2//3
f 6//6 5//5 7//7
f 1//1 5//5 8//8
f 8//8 5//5 6//6
f 9//9 4//4 10//10
f 3//2 10//10 4//4
f 11//11 9//9 10//10
f 9//9 11//11 12//12
f 4//4 13//13 2//3
f 14//14 15//15 13//13
f 14//14 4//4 9//9
f 13//13 4//4 14//14
f 16//16 14//14 17//17
f 16//16 18//18 14//14
f 14//14 18//18 15//15
f 14//14 9//9 17//17
f 19//19 21//20 20//21
f 19//19 22//22 21//20
f 20//21 23//23 19//19
f 20//21 21//20 7//7
f 24//24 25//25 22//22
f 24//24 26//26 25//25
f 26//26 24//24 27//27
f 26//26 28//28 25//25
f 29//29 31//30 30//31
f 30//31 22//22 29//29
f 31//30 29//29 32//32
f 30//31 24//24 22//22
f 27//27 24//24 31//30
f 30//31 31//30 24//24
f 33//33 29//29 19//19
f 33//33 32//32 29//29
f 19//19 23//23 33//33
f 19//19 29//29 22//22
f 34//34 35//35 33//33
f 34//34 36//36 35//35
f 33//33 37//37 34//34
f 33//33 35//35 32//32
f 33//33 23//23 37//37
f 37//37 39//38 38//39
f 34//34 38//39 36//36
f 37//37 23//23 40//40
f 37//37 38//39 34//34
f 40//40 39//38 37//37
f 41//41 43//42 42//43
f 41//41 35//35 43//42
f 35//35 41//41 32//32
f 35//35 36//36 43//42
f 43//42 44//44 42//43
f 45//45 44//44 36//36
f 43//42 36//36 44//44
f 46//46 44//44 47//47
f 46//46 42//43 44//44
f 47//47 48//48 46//46
f 47//47 44//44 45//45
f 49//49 46//46 48//48
f 46//46 49//49 42//43
f 48//48 50//50 49//49
f 51//51 49//49 50//50
f 51//51 41//41 49//49
f 41//41 51//51 32//32
f 41//41 42//43 49//49
f 51//51 50//50 52//52
f 32//32 51//51 31//30
f 52//52 31//30 51//51
f 53//53 55//54 54//55
f 53//53 31//30 55//54
f 53//53 54//55 56//56
f 57//57 56//56 54//55
f 52//52 54//55 55//54
f 55//54 31//30 52//52
f 54//55 52//52 50//50
f 58//58 27//27 59//59
f 60//60 59//59 61//61
f 57//57 60//60 61//61
f 58//58 59//59 60//60
f 53//53 59//59 27//27
f 56//56 61//61 59//59
f 53//53 56//56 59//59
f 56//56 57//57 61//61
f 31//30 53//53 27//27
f 22//22 25//25 21//20
f 21//20 25//25 62//62
f 62//62 25//25 28//28
f 7//7 21//20 62//62
f 63//63 65//64 64//65
f 64//65 65//64 66//65
f 65//64 67//66 66//65
f 67//66 2//3 66//65
f 68//67 67//66 65//64
f 64//65 69//68 63//63
f 69//68 64//65 66//65
f 13//13 66//65 2//3
f 13//13 15//15 69//68
f 66//65 13//13 69//68
f 68//67 70//69 67//66
f 67//66 70//69 5//5
f 5//5 70//69 7//7
f 2//3 67//66 5//5
f 71//70 73//71 72//72
f 71//70 74//73 73//71
f 74//73 71//70 75//74
f 74//73 76//75 73//71
f 77//76 78//77 26//26
f 77//76 72//72 78//77
f 26//26 27//27 77//76
f 26//26 78//77 28//28
f 79//78 81//79 80//80
f 81//79 79//78 72//72
f 80//80 82//81 79//78
f 81//79 72//72 77//76
f 27//27 80//80 77//76
f 81//79 77//76 80//80
f 83//82 79//78 82//81
f 83//82 71//70 79//78
f 71//70 83//82 75//74
f 71//70 72//72 79//78
f 84//83 85//84 36//36
f 84//83 83//82 85//84
f 83//82 84//83 86//83
f 83//82 82//81 85//84
f 83//82 86//83 75//74
f 86//83 38//39 39//38
f 84//83 36//36 38//39
f 86//83 87//85 75//74
f 86//83 84//83 38//39
f 87//85 86//83 39//38
f 88//86 89//87 85//84
f 88//86 90//88 89//87
f 85//84 82//81 88//86
f 85//84 89//87 36//36
f 89//87 90//88 91//89
f 45//45 36//36 91//89
f 89//87 91//89 36//36
f 92//90 91//89 90//88
f 92//90 47//47 91//89
f 47//47 92//90 48//48
f 47//47 45//45 91//89
f 93//91 48//48 92//90
f 92//90 90//88 93//91
f 48//48 93//91 94//92
f 95//93 93//91 88//86
f 95//93 94//92 93//91
f 88//86 82//81 95//93
f 88//86 93//91 90//88
f 95//93 96//94 94//92
f 82//81 80//80 95//93
f 96//94 95//93 80//80
f 97//95 99//96 98//97
f 97//95 98//97 80//80
f 97//95 100//98 99//96
f 101//99 99//96 100//98
f 96//94 98//97 99//96
f 98//97 96//94 80//80
f 99//96 94//92 96//94
f 58//58 102//100 27//27
f 60//60 103//101 102//100
f 101//99 103//101 60//60
f 58//58 60//60 102//100
f 97//95 27//27 102//100
f 100//98 102//100 103//101
f 97//95 102//100 100//98
f 100//98 103//101 101//99
f 80//80 27//27 97//95
f 72//72 73//71 78//77
f 73//71 104//102 78//77
f 104//102 28//28 78//77
f 76//75 104//102 73//71
f 105//103 107//104 106//105
f 107//104 108//104 106//105
f 106//105 108//104 109//106
f 109//106 108//104 16//16
f 110//107 106//105 109//106
f 105//103 111//108 107//104
f 111//108 108//104 107//104
f 18//18 16//16 108//104
f 18//18 111//108 15//15
f 108//104 111//108 18//18
f 110//107 109//106 112//109
f 109//106 113//110 112//109
f 113//110 76//75 112//109
f 16//16 113//110 109//106
f 75//74 114//111 74//73
f 114//111 112//109 74//73
f 112//109 76//75 74//73
f 110//107 112//109 114//111
f 111//108 63//63 69//68
f 69//68 15//15 111//108
f 63//63 111//108 105//103
f 23//23 20//21 115//112
f 115//112 20//21 70//69
f 70//69 20//21 7//7
f 68//67 115//112 70//69
f 116//113 68//67 65//64
f 63//63 106//105 65//64
f 63//63 105//103 106//105
f 106//105 110//107 116//113
f 116//113 65//64 106//105
f 39//38 40//40 87//85
f 87//85 40//40 117//114
f 117//114 40//40 23//23
f 75//74 87//85 117//114
f 115//112 117//114 23//23
f 115//112 68//67 116//113
f 114//111 117//114 115//112
f 115//112 116//113 114//111
f 114//111 116//113 110//107
f 75//74 117//114 114//111
f 94//92 50//50 48//48
f 94//92 99//96 101//99
f 101//99 50//50 94//92
f 50//50 101//99 57//57
f 57//57 101//99 60//60
f 54//55 50//50 57//57
f 118//115 120//116 119//117
f 121//118 123//117 122//119
f 123//117 121//118 119//117
f 119//117 121//118 124//120
f 124//120 121//118 125//121
f 118//115 119//117 124//120
f 126//122 119//117 120//116
f 127//123 123//117 119//117
f 127//123 126//122 128//124
f 127//123 122//119 123//117
f 126//122 127//123 119//117
f 129//125 131//125 130//125
f 129//125 132//126 131//125
f 131//125 76//75 124//120
f 132//126 76//75 131//125
f 125//121 133//127 130//125
f 125//121 131//125 124//120
f 133//127 9//9 130//125
f 130//125 131//125 125//121
f 104//102 132//126 134//128
f 28//28 104//102 134//128
f 134//128 132//126 129//125
f 9//9 134//128 129//125
f 9//9 129//125 130//125
f 104//102 76//75 132//126
f 120//116 16//16 126//122
f 17//17 126//122 16//16
f 118//115 113//110 120//116
f 16//16 120//116 113//110
f 124//120 76//75 113//110
f 9//9 128//124 17//17
f 133//127 128//124 9//9
f 113//110 118//115 124//120
f 17//17 128//124 126//122
f 121//118 127//123 128//124
f 121//118 122//119 127//123
f 125//121 121//118 133//127
f 128//124 133//127 121//118
f 135//129 137//130 136//131
f 137//130 138//132 136//131
f 11//11 10//10 137//130
f 137//130 135//129 139//131
f 12//12 11//11 139//131
f 140//133 12//12 139//131
f 11//11 137//130 139//131
f 141//134 143//135 142//134
f 141//134 144//135 143//135
f 143//135 6//6 7//7
f 142//134 143//135 7//7
f 140//133 144//135 12//12
f 140//133 6//6 143//135
f 12//12 144//135 9//9
f 144//135 140//133 143//135
f 62//62 134//128 142//134
f 28//28 134//128 62//62
f 134//128 141//134 142//134
f 9//9 141//134 134//128
f 9//9 144//135 141//134
f 62//62 142//134 7//7
f 145//136 135//129 146//136
f 138//132 146//136 136//131
f 146//136 135//129 136//131
f 8//8 145//136 1//1
f 145//136 6//6 139//131
f 145//136 139//131 135//129
f 140//133 139//131 6//6
f 6//6 145//136 8//8
f 3//2 1//1 145//136
f 137//130 145//136 146//136
f 137//130 10//10 3//2
f 137//130 146//136 138//132
f 3//2 145//136 137//130
